<svg xmlns="http://www.w3.org/2000/svg" width="299.7" height="143.96" viewBox="0 0 299.7 143.96">
  <defs>
    <style>
      .cls-1 {
        fill: #09f;
      }

      .cls-2 {
        fill: #ff414d;
      }

      .cls-3 {
        fill: #fff;
      }
    </style>
  </defs>
  <g id="Layer_2" data-name="Layer 2">
    <g id="Layer_1-2" data-name="Layer 1">
      <g>
        <path class="cls-1" d="M77.69,37.3H54C55.18,41.58,58.72,44,63.55,44a14.81,14.81,0,0,0,9.38-3.4l3.81,6.26a20.54,20.54,0,0,1-13.47,5c-10.67,0-18.42-7.68-18.42-17.61A17.35,17.35,0,0,1,62.46,16.63c9.45,0,15.84,6.93,15.84,15.64A23.77,23.77,0,0,1,77.69,37.3ZM54,30.84H69.39C69.33,26.55,66,24,62.12,24S55.11,26.62,54,30.84Z"/>
        <path class="cls-1" d="M158.7,34.17c0,10-8.16,17.61-18.15,17.61s-18-7.61-18-17.61,8-17.54,18-17.54C150.54,16.63,158.7,24.24,158.7,34.17Zm-26.79.07c0,5.3,3.61,9.11,8.71,9.11s8.7-3.88,8.7-9.11S145.58,25,140.62,25,131.91,28.94,131.91,34.24Z"/>
        <path class="cls-1" d="M94.85,0V39c0,2.51.51,4.1,1.51,4.77s2.66.83,4.94.47l.33,7.05a28.49,28.49,0,0,1-6.73.47,10,10,0,0,1-5-1.58,8.67,8.67,0,0,1-3.13-4.09A19.29,19.29,0,0,1,85.66,39V0Z"/>
        <path class="cls-1" d="M114.55,0V39q0,3.77,1.51,4.77t4.93.47l.34,7.05a28.57,28.57,0,0,1-6.74.47,10,10,0,0,1-5-1.58,8.8,8.8,0,0,1-3.13-4.09,19.29,19.29,0,0,1-1.1-7.09V0Z"/>
        <path class="cls-1" d="M38.22,51H29V31.65H9.18V51H0V6.16H9.18v17.2H29V6.16h9.18Z"/>
      </g>
      <path class="cls-2" d="M146.35,63.66A5.88,5.88,0,1,1,140.5,58,5.72,5.72,0,0,1,146.35,63.66Z"/>
      <g>
        <path class="cls-3" d="M43.93,63.87v45.69H34.75v-24L23.46,99.77h-3L9.18,85.56v24H0V63.87H3L22,88.21l19-24.34Z"/>
        <path class="cls-3" d="M125.91,58.56v51h-8.43v-4.21c-2.31,3.19-6.12,5-10.81,5-9.52,0-16.32-7.48-16.32-17.61s6.8-17.62,16.32-17.62c4.22,0,7.75,1.43,10.06,4V58.56Zm-9,34.21c0-6.4-4.28-9.32-8.5-9.32-4.76,0-8.7,3.54-8.7,9.25s3.87,9.31,8.7,9.31C112.59,102,116.87,99.23,116.87,92.77Z"/>
        <path class="cls-3" d="M288.71,95.83H265.05c1.15,4.28,4.69,6.66,9.52,6.66a14.81,14.81,0,0,0,9.38-3.4l3.81,6.26a20.54,20.54,0,0,1-13.47,5c-10.67,0-18.42-7.69-18.42-17.61a17.36,17.36,0,0,1,17.61-17.62c9.45,0,15.84,6.94,15.84,15.64A23.79,23.79,0,0,1,288.71,95.83Zm-23.66-6.46h15.36c-.06-4.29-3.4-6.8-7.27-6.8S266.13,85.15,265.05,89.37Z"/>
        <path class="cls-3" d="M83.64,95.83H60c1.16,4.28,4.69,6.66,9.52,6.66a14.81,14.81,0,0,0,9.38-3.4l3.81,6.26a20.52,20.52,0,0,1-13.46,5c-10.68,0-18.43-7.69-18.43-17.61A17.36,17.36,0,0,1,68.41,75.15c9.45,0,15.84,6.94,15.84,15.64A23.79,23.79,0,0,1,83.64,95.83ZM60,89.37H75.35c-.07-4.29-3.4-6.8-7.28-6.8S61.07,85.15,60,89.37Z"/>
        <path class="cls-3" d="M145.06,109.56h-9.18V75.9h9.18Z"/>
        <path class="cls-3" d="M185.71,83.45l-6.4,5c-1.9-2.85-4.35-4.89-8.09-4.89-5.23,0-8.84,3.94-8.84,9.18S166,102,171.22,102c3.68,0,6.12-2,8.09-4.83l6.4,4.89a16.19,16.19,0,0,1-14.62,8.37,17.64,17.64,0,0,1-18-17.68c0-9.93,8-17.55,18-17.55A16.07,16.07,0,0,1,185.71,83.45Z"/>
        <path class="cls-3" d="M221.1,89.57v20h-8.43V106.3a13.83,13.83,0,0,1-10.27,4.08c-7.35,0-11.63-4.35-11.63-10.07,0-6.12,5-9.79,12.72-9.79h8.43V89c0-3.68-2.11-5.92-6.26-5.92-3.6,0-6.12,1.7-8.91,4.62L192,82.09a18.28,18.28,0,0,1,14.69-6.94C215.25,75.15,221.1,80,221.1,89.57ZM211.92,97v-.41h-7.21c-3,0-4.69,1.16-4.69,3.4s2,3.68,4.83,3.68C208.72,103.65,211.92,100.93,211.92,97Z"/>
        <path class="cls-3" d="M251.78,75.9V84h-2.45c-5.31,0-9.05,2.72-9.05,8.78v16.79H231.1V75.9h8.44V80a11.42,11.42,0,0,1,9.24-4.48A9.77,9.77,0,0,1,251.78,75.9Z"/>
      </g>
      <g>
        <path class="cls-3" d="M6.44,140.7a4.61,4.61,0,0,1-3.84-2v5.19H0V129.13H2.6V131a4.51,4.51,0,0,1,3.84-2.13c2.68,0,5.28,2.13,5.28,5.9S9.14,140.7,6.44,140.7Zm-.6-9.55a3.66,3.66,0,0,0,0,7.29c1.78,0,3.24-1.39,3.24-3.65A3.34,3.34,0,0,0,5.84,131.15Z"/>
        <path class="cls-3" d="M20,140.72a5.86,5.86,0,0,1-6-5.88,5.92,5.92,0,0,1,6-6,5.88,5.88,0,0,1,6,5.9A5.94,5.94,0,0,1,20,140.72Zm0-9.55a3.4,3.4,0,0,0-3.41,3.62,3.5,3.5,0,0,0,3.46,3.67,3.41,3.41,0,0,0,3.43-3.62A3.51,3.51,0,0,0,20,131.17Z"/>
        <path class="cls-3" d="M39.71,136.9,42,129.13h2.59l-3.71,11.42H38.59l-2.53-7.75-2.55,7.75H31.19l-3.67-11.42h2.66l2.28,7.77L35,129.09h2.21Z"/>
        <path class="cls-3" d="M52,138.59a4.11,4.11,0,0,0,3.07-1.35l1.53,1.35a5.75,5.75,0,0,1-4.64,2.13,5.92,5.92,0,0,1-.28-11.83c3.61,0,5.43,2.84,5.43,6.12,0,.23,0,.45,0,.71H48.72A3.18,3.18,0,0,0,52,138.59ZM54.52,134c-.18-1.67-1.16-3-2.88-3s-2.7,1.22-2.94,3Z"/>
        <path class="cls-3" d="M62.58,140.46H60V129.13h2.59v2.55a4,4,0,0,1,4-2.77v2.75h-.15c-2.27,0-3.86,1.48-3.86,4.49Z"/>
        <path class="cls-3" d="M74.14,138.59a4.11,4.11,0,0,0,3.07-1.35l1.52,1.35a5.91,5.91,0,0,1-10.45-3.77,5.63,5.63,0,0,1,5.54-5.93c3.6,0,5.43,2.84,5.43,6.12,0,.23,0,.45,0,.71H70.88A3.18,3.18,0,0,0,74.14,138.59ZM76.67,134c-.17-1.67-1.16-3-2.87-3a3.06,3.06,0,0,0-2.94,3Z"/>
        <path class="cls-3" d="M90.67,140.46v-1.89a4.55,4.55,0,0,1-3.87,2.13c-2.66,0-5.25-2.13-5.25-5.91s2.55-5.9,5.25-5.9a4.71,4.71,0,0,1,3.87,2v-6.1h2.59v15.67Zm-3.24-9.31a3.33,3.33,0,0,0-3.27,3.64,3.37,3.37,0,0,0,3.27,3.65,3.67,3.67,0,0,0,0-7.29Z"/>
        <path class="cls-3" d="M109.24,140.7a4.64,4.64,0,0,1-3.85-2v1.76H102.8V124.79h2.59V131a4.54,4.54,0,0,1,3.85-2.13c2.68,0,5.27,2.13,5.27,5.9S111.94,140.7,109.24,140.7Zm-.61-9.55a3.66,3.66,0,0,0,0,7.29,3.67,3.67,0,0,0,0-7.29Z"/>
        <path class="cls-3" d="M122.84,140.78c-.9,2.32-1.91,3.18-3.73,3.18a5.28,5.28,0,0,1-2.68-.69l.88-1.93a3.17,3.17,0,0,0,1.52.43c.73,0,1.18-.32,1.61-1.31l-4.72-11.33h2.77l3.22,8.41,2.94-8.41h2.7Z"/>
        <path class="cls-3" d="M137.82,134.13v6.33h-2.64v-15h2.64v6.24H145v-6.24h2.64v15H145v-6.33Z"/>
        <path class="cls-3" d="M155.78,138.59a4.11,4.11,0,0,0,3.07-1.35l1.52,1.35a5.91,5.91,0,0,1-10.45-3.77,5.63,5.63,0,0,1,5.54-5.93c3.6,0,5.43,2.84,5.43,6.12,0,.23,0,.45,0,.71h-8.33A3.18,3.18,0,0,0,155.78,138.59Zm2.53-4.59c-.17-1.67-1.16-3-2.87-3a3.06,3.06,0,0,0-2.94,3Z"/>
        <path class="cls-3" d="M170.64,140.46v-1.4A4.55,4.55,0,0,1,167,140.7c-2.14,0-4-1.23-4-3.5v0c0-2.44,1.95-3.64,4.59-3.64a9.51,9.51,0,0,1,3.13.47v-.28c0-1.57-1-2.43-2.79-2.43a7.9,7.9,0,0,0-3.24.71l-.71-2.08a9.72,9.72,0,0,1,4.32-.94c3.35,0,5,1.76,5,4.78v6.72Zm.07-4.81a7.63,7.63,0,0,0-2.6-.45c-1.63,0-2.6.67-2.6,1.83v0c0,1.07,1,1.67,2.19,1.67,1.72,0,3-1,3-2.38Z"/>
        <path class="cls-3" d="M176.71,140.46V124.79h2.6v15.67Z"/>
        <path class="cls-3" d="M186,136.92a1.24,1.24,0,0,0,1.39,1.42A3.45,3.45,0,0,0,189,138v2.12a4.48,4.48,0,0,1-2.34.58c-1.91,0-3.26-.83-3.26-3.32v-6H182v-2.23h1.44V126H186v3.11h3v2.23h-3Z"/>
        <path class="cls-3" d="M194.51,140.46h-2.6V124.79h2.6v6.1a4.09,4.09,0,0,1,3.54-2c2.55,0,4,1.72,4,4.36v7.21h-2.59V134c0-1.76-.88-2.77-2.43-2.77a2.52,2.52,0,0,0-2.55,2.81Z"/>
        <path class="cls-3" d="M213.29,136.77h-.08l-4.7-7v10.73h-2.6v-15h2.81l4.57,7.1,4.57-7.1h2.82v15H218V129.69Z"/>
        <path class="cls-3" d="M230.58,140.46v-1.4a4.55,4.55,0,0,1-3.67,1.64c-2.15,0-4-1.23-4-3.5v0c0-2.44,2-3.64,4.6-3.64a9.51,9.51,0,0,1,3.13.47v-.28c0-1.57-1-2.43-2.79-2.43a7.86,7.86,0,0,0-3.24.71l-.71-2.08a9.71,9.71,0,0,1,4.31-.94c3.35,0,5,1.76,5,4.78v6.72Zm.06-4.81a7.57,7.57,0,0,0-2.59-.45c-1.63,0-2.6.67-2.6,1.83v0c0,1.07,1,1.67,2.19,1.67,1.72,0,3-1,3-2.38Z"/>
        <path class="cls-3" d="M239.17,140.46h-2.6V129.13h2.6v2.55a4,4,0,0,1,4-2.77v2.75H243c-2.28,0-3.86,1.48-3.86,4.49Z"/>
        <path class="cls-3" d="M256.11,140.46h-3l-3.41-4.89-1.59,1.65v3.24h-2.6V124.79h2.6v9.36l4.7-5H256l-4.51,4.61Z"/>
        <path class="cls-3" d="M262.93,138.59a4.11,4.11,0,0,0,3.07-1.35l1.53,1.35a5.75,5.75,0,0,1-4.64,2.13,5.92,5.92,0,0,1-.28-11.83c3.61,0,5.43,2.84,5.43,6.12,0,.23,0,.45,0,.71h-8.33A3.18,3.18,0,0,0,262.93,138.59Zm2.54-4.59c-.18-1.67-1.16-3-2.88-3s-2.7,1.22-2.94,3Z"/>
        <path class="cls-3" d="M273.79,136.92a1.24,1.24,0,0,0,1.4,1.42,3.48,3.48,0,0,0,1.61-.39v2.12a4.53,4.53,0,0,1-2.34.58c-1.91,0-3.27-.83-3.27-3.32v-6h-1.43v-2.23h1.43V126h2.6v3.11h3v2.23h-3Z"/>
        <path class="cls-3" d="M283.69,140.67a8,8,0,0,1-4.81-1.69l1.16-1.76a6.38,6.38,0,0,0,3.71,1.39c1.12,0,1.76-.47,1.76-1.22v0c0-.88-1.2-1.18-2.53-1.59-1.67-.47-3.54-1.16-3.54-3.33v0c0-2.15,1.78-3.45,4-3.45a7.89,7.89,0,0,1,4.17,1.28l-1,1.85a6.53,6.53,0,0,0-3.2-1.07c-1,0-1.59.47-1.59,1.13v.05c0,.81,1.23,1.15,2.56,1.58,1.65.52,3.52,1.27,3.52,3.31v0C287.9,139.49,286.05,140.67,283.69,140.67Z"/>
      </g>
      <g>
        <path class="cls-3" d="M290.85,76.29h-1.77v-.62h4.23v.62h-1.77v5h-.69Z"/>
        <path class="cls-3" d="M299,76.61l-1.9,4.64h-.28l-1.89-4.64v4.64h-.69V75.67h1L297,79.92l1.74-4.25h1v5.58H299Z"/>
      </g>
      <path class="cls-3" d="M289.63,139.4a1.49,1.49,0,1,1,1.49,1.49A1.49,1.49,0,0,1,289.63,139.4Zm.2,0a1.29,1.29,0,1,0,1.29-1.28A1.29,1.29,0,0,0,289.83,139.4Zm1.25.19h-.31v.67h-.22v-1.71h.69a.52.52,0,0,1,.54.52.5.5,0,0,1-.43.51l.45.68h-.28Zm-.31-.84v.63h.47a.32.32,0,0,0,0-.63Z"/>
    </g>
  </g>
</svg>
